<svg width="36" height="41" viewBox="0 0 36 41" fill="none" xmlns="http://www.w3.org/2000/svg">
<circle cx="18" cy="20" r="18" fill="#0077FF"/>
<path d="M15.462 31.688C15.462 31.3367 15.5243 31.0023 15.649 30.685C15.785 30.3677 15.9663 30.0957 16.193 29.869C16.4197 29.6423 16.6917 29.461 17.009 29.325C17.3263 29.189 17.6663 29.121 18.029 29.121C18.3917 29.121 18.726 29.189 19.032 29.325C19.3493 29.461 19.6213 29.6423 19.848 29.869C20.086 30.0957 20.273 30.3677 20.409 30.685C20.545 31.0023 20.613 31.3367 20.613 31.688C20.613 32.0507 20.545 32.3907 20.409 32.708C20.273 33.014 20.086 33.2803 19.848 33.507C19.6213 33.7337 19.3493 33.9093 19.032 34.034C18.726 34.17 18.3917 34.238 18.029 34.238C17.6663 34.238 17.3263 34.17 17.009 34.034C16.6917 33.9093 16.4197 33.7337 16.193 33.507C15.9663 33.2803 15.785 33.014 15.649 32.708C15.5243 32.3907 15.462 32.0507 15.462 31.688Z" fill="white"/>
</svg>
